<?xml version="1.0" encoding="UTF-8" standalone="no"?>
<!DOCTYPE svg PUBLIC "-//W3C//DTD SVG 1.1//EN"
 "http://www.w3.org/Graphics/SVG/1.1/DTD/svg11.dtd">
<!-- Generated by graphviz version 7.0.5 (20221223.1930)
 -->
<!-- Title: Queue Pages: 1 -->
<svg width="134pt" height="260pt"
 viewBox="0.00 0.00 134.00 260.00" xmlns="http://www.w3.org/2000/svg" xmlns:xlink="http://www.w3.org/1999/xlink">
<g id="graph0" class="graph" transform="scale(1 1) rotate(0) translate(4 256)">
<title>Queue</title>
<!-- first -->
<g id="node1" class="node">
<title>first</title>
<polygon fill="red" stroke="red" points="54,-252 0,-252 0,-216 54,-216 54,-252"/>
<text text-anchor="middle" x="27" y="-230.3" font-family="Times New Roman,serif" font-size="14.00" fill="white">first</text>
</g>
<!-- node1 -->
<g id="node3" class="node">
<title>node1</title>
<ellipse fill="blue" stroke="blue" cx="99" cy="-234" rx="27" ry="18"/>
<text text-anchor="middle" x="99" y="-230.3" font-family="Times New Roman,serif" font-size="14.00" fill="white">33</text>
</g>
<!-- first&#45;&gt;node1 -->
<g id="edge1" class="edge">
<title>first&#45;&gt;node1</title>
<path fill="none" stroke="black" d="M54.28,-234C56.28,-234 58.28,-234 60.29,-234"/>
<polygon fill="black" stroke="black" points="60.24,-237.5 70.24,-234 60.24,-230.5 60.24,-237.5"/>
</g>
<!-- last -->
<g id="node2" class="node">
<title>last</title>
<polygon fill="red" stroke="red" points="54,-36 0,-36 0,0 54,0 54,-36"/>
<text text-anchor="middle" x="27" y="-14.3" font-family="Times New Roman,serif" font-size="14.00" fill="white">last</text>
</g>
<!-- node4 -->
<g id="node6" class="node">
<title>node4</title>
<ellipse fill="blue" stroke="blue" cx="99" cy="-18" rx="27" ry="18"/>
<text text-anchor="middle" x="99" y="-14.3" font-family="Times New Roman,serif" font-size="14.00" fill="white">22</text>
</g>
<!-- last&#45;&gt;node4 -->
<g id="edge5" class="edge">
<title>last&#45;&gt;node4</title>
<path fill="none" stroke="black" d="M54.28,-18C56.28,-18 58.28,-18 60.29,-18"/>
<polygon fill="black" stroke="black" points="60.24,-21.5 70.24,-18 60.24,-14.5 60.24,-21.5"/>
</g>
<!-- node2 -->
<g id="node4" class="node">
<title>node2</title>
<ellipse fill="blue" stroke="blue" cx="99" cy="-162" rx="27" ry="18"/>
<text text-anchor="middle" x="99" y="-158.3" font-family="Times New Roman,serif" font-size="14.00" fill="white">33</text>
</g>
<!-- node1&#45;&gt;node2 -->
<g id="edge2" class="edge">
<title>node1&#45;&gt;node2</title>
<path fill="none" stroke="black" d="M99,-215.7C99,-208.41 99,-199.73 99,-191.54"/>
<polygon fill="black" stroke="black" points="102.5,-191.62 99,-181.62 95.5,-191.62 102.5,-191.62"/>
</g>
<!-- node3 -->
<g id="node5" class="node">
<title>node3</title>
<ellipse fill="blue" stroke="blue" cx="99" cy="-90" rx="27" ry="18"/>
<text text-anchor="middle" x="99" y="-86.3" font-family="Times New Roman,serif" font-size="14.00" fill="white">44</text>
</g>
<!-- node2&#45;&gt;node3 -->
<g id="edge3" class="edge">
<title>node2&#45;&gt;node3</title>
<path fill="none" stroke="black" d="M99,-143.7C99,-136.41 99,-127.73 99,-119.54"/>
<polygon fill="black" stroke="black" points="102.5,-119.62 99,-109.62 95.5,-119.62 102.5,-119.62"/>
</g>
<!-- node3&#45;&gt;node4 -->
<g id="edge4" class="edge">
<title>node3&#45;&gt;node4</title>
<path fill="none" stroke="black" d="M99,-71.7C99,-64.41 99,-55.73 99,-47.54"/>
<polygon fill="black" stroke="black" points="102.5,-47.62 99,-37.62 95.5,-47.62 102.5,-47.62"/>
</g>
</g>
</svg>
